<svg xmlns="http://www.w3.org/2000/svg" version="1.1" xmlns:xlink="http://www.w3.org/1999/xlink" xmlns:svgjs="http://svgjs.dev/svgjs" width="1440" height="560" preserveAspectRatio="none" viewBox="0 0 1440 560"><g clip-path="url(&quot;#SvgjsClipPath1088&quot;)" fill="none"><rect width="1440" height="560" x="0" y="0" fill="rgba(255, 255, 255, 1)"></rect><path d="M1.1 43.22Q9.42 44.29 17.73 45.36 26.05 46.43 34.37 47.5 42.68 48.55 51 49.61 59.31 50.65 67.63 51.69 75.95 52.7 84.26 53.72 92.58 54.7 100.89 55.69 109.21 56.65 117.53 57.6 125.84 58.52 134.16 59.43" stroke="rgba(195, 170, 183, 1)" stroke-width="4"></path><path d="M160.19 62.12Q162.12 62.31 164.05 62.5 165.97 62.69 167.9 62.87 169.83 63.06 171.76 63.24" stroke="rgba(193, 218, 242, 1)" stroke-width="4"></path><path d="M208.55 66.45Q216.93 67.08 225.31 67.71 233.69 68.28 242.08 68.84 250.46 69.34 258.84 69.84" stroke="rgba(190, 230, 230, 1)" stroke-width="4"></path><path d="M293.59 71.44Q295.69 71.52 297.79 71.59 299.89 71.66 301.99 71.73 304.09 71.8 306.19 71.86" stroke="rgba(195, 170, 183, 1)" stroke-width="4"></path><path d="M329.37 72.41Q337.03 72.51 344.69 72.61 352.35 72.64 360.01 72.68 367.67 72.64 375.33 72.61 382.99 72.51 390.65 72.41 398.31 72.25 405.97 72.08 413.63 71.85 421.29 71.62 428.95 71.33 436.61 71.04" stroke="rgba(204, 187, 255, 1)" stroke-width="4"></path><path d="M455.72 70.13Q465.03 69.6 474.34 69.07 483.65 68.45 492.95 67.83 502.26 67.14 511.57 66.44" stroke="rgba(193, 218, 242, 1)" stroke-width="4"></path><path d="M523.17 65.49Q530.78 64.82 538.38 64.15 545.99 63.44 553.59 62.73 561.2 61.97 568.8 61.22 576.41 60.42 584.01 59.63" stroke="rgba(224, 198, 249, 1)" stroke-width="4"></path><path d="M602.81 57.56Q610.91 56.63 619 55.7 627.1 54.74 635.2 53.78 643.29 52.79 651.39 51.81 659.48 50.8 667.58 49.79 675.68 48.76 683.77 47.74 691.87 46.7 699.97 45.66 708.06 44.62 716.16 43.57 724.25 42.53 732.35 41.48" stroke="rgba(195, 170, 183, 1)" stroke-width="4"></path><path d="M762.21 37.66Q770.74 36.58 779.27 35.51 787.8 34.45 796.33 33.4 804.86 32.37 813.38 31.35 821.91 30.35 830.44 29.36 838.97 28.4 847.5 27.45" stroke="rgba(193, 218, 242, 1)" stroke-width="4"></path><path d="M873.18 24.73Q881.33 23.93 889.48 23.13 897.62 22.38 905.77 21.63 913.92 20.93 922.07 20.23 930.21 19.59 938.36 18.95 946.51 18.37 954.66 17.79 962.81 17.28 970.95 16.76 979.1 16.32 987.25 15.87 995.4 15.49 1003.54 15.11 1011.69 14.8 1019.84 14.49" stroke="rgba(195, 170, 183, 1)" stroke-width="4"></path><path d="M1058 13.61Q1065.7 13.55 1073.4 13.49 1081.1 13.49 1088.8 13.5 1096.5 13.57 1104.2 13.64 1111.9 13.78 1119.6 13.92 1127.3 14.12 1135 14.33 1142.69 14.59 1150.39 14.86 1158.09 15.19 1165.79 15.53 1173.49 15.92 1181.19 16.32 1188.89 16.77 1196.59 17.23 1204.29 17.74 1211.99 18.25 1219.69 18.82 1227.39 19.39" stroke="rgba(237, 200, 237, 1)" stroke-width="4"></path><path d="M1267.13 22.81Q1275.44 23.62 1283.76 24.42 1292.07 25.28 1300.39 26.14 1308.7 27.04 1317.02 27.94 1325.34 28.89 1333.65 29.83 1341.96 30.81 1350.28 31.78 1358.59 32.79 1366.91 33.8 1375.22 34.83 1383.54 35.86" stroke="rgba(190, 230, 230, 1)" stroke-width="4"></path><path d="M1409.7 39.17Q1412.22 39.5 1414.75 39.82 1417.28 40.15 1419.8 40.47 1422.32 40.8 1424.85 41.12 1427.38 41.45 1429.9 41.77 1432.43 42.1 1434.95 42.42 1437.47 42.75 1440 43.08" stroke="rgba(224, 198, 249, 1)" stroke-width="4"></path><path d="M24.23 89.28Q33.11 90.41 41.99 91.55 50.87 92.67 59.75 93.78 68.64 94.88 77.52 95.98 86.4 97.04 95.28 98.11 104.16 99.14 113.04 100.17" stroke="rgba(237, 200, 237, 1)" stroke-width="4"></path><path d="M136.33 102.74Q144.03 103.55 151.72 104.35 159.42 105.11 167.11 105.87 174.81 106.59 182.51 107.31 190.2 107.98 197.9 108.65 205.59 109.27 213.29 109.89 220.99 110.46 228.68 111.03 236.38 111.54 244.07 112.05 251.77 112.5 259.47 112.95 267.16 113.34 274.86 113.73 282.55 114.06 290.25 114.39" stroke="rgba(195, 170, 183, 1)" stroke-width="4"></path><path d="M303.54 114.86Q311.47 115.08 319.39 115.29 327.32 115.44 335.24 115.58 343.17 115.66 351.09 115.73 359.02 115.74 366.94 115.74 374.87 115.67 382.79 115.61 390.72 115.47 398.64 115.33 406.57 115.13 414.49 114.92 422.42 114.65 430.34 114.37" stroke="rgba(190, 230, 230, 1)" stroke-width="4"></path><path d="M449.37 113.53Q456.96 113.13 464.56 112.73 472.15 112.27 479.74 111.8 487.34 111.29 494.93 110.77 502.52 110.2 510.12 109.63 517.71 109.01 525.3 108.38 532.9 107.71 540.49 107.04 548.08 106.32 555.68 105.6 563.27 104.84 570.86 104.08 578.46 103.29 586.05 102.49 593.64 101.65 601.24 100.82 608.83 99.95 616.42 99.08 624.02 98.18 631.61 97.29" stroke="rgba(204, 187, 255, 1)" stroke-width="4"></path><path d="M649.88 95.07Q657.42 94.13 664.97 93.19 672.51 92.24 680.06 91.29 687.6 90.32 695.15 89.36 702.69 88.39 710.24 87.41 717.78 86.44 725.32 85.47 732.87 84.49 740.41 83.52 747.96 82.55 755.5 81.59 763.05 80.63 770.59 79.67 778.14 78.73 785.68 77.79" stroke="rgba(195, 170, 183, 1)" stroke-width="4"></path><path d="M798.17 76.25Q805.78 75.34 813.4 74.42 821.01 73.53 828.63 72.64 836.24 71.78 843.85 70.92 851.47 70.1 859.08 69.27 866.7 68.48 874.31 67.7" stroke="rgba(193, 218, 242, 1)" stroke-width="4"></path><path d="M897.85 65.42Q906.39 64.66 914.92 63.91 923.46 63.21 932 62.51 940.53 61.88 949.07 61.25 957.6 60.69 966.14 60.13" stroke="rgba(190, 230, 230, 1)" stroke-width="4"></path><path d="M996.52 58.5Q1004.9 58.15 1013.28 57.8 1021.66 57.53 1030.03 57.25 1038.41 57.06 1046.79 56.86 1055.17 56.75 1063.55 56.63 1071.93 56.59 1080.31 56.55 1088.68 56.59 1097.06 56.64 1105.44 56.76 1113.82 56.88" stroke="rgba(193, 218, 242, 1)" stroke-width="4"></path><path d="M1140.47 57.58Q1148.26 57.87 1156.05 58.17 1163.84 58.53 1171.63 58.89 1179.41 59.31 1187.2 59.73 1194.99 60.22 1202.78 60.7 1210.57 61.24 1218.36 61.79 1226.15 62.38 1233.93 62.98 1241.72 63.64 1249.51 64.29 1257.3 64.99 1265.09 65.69 1272.88 66.44 1280.67 67.19 1288.46 67.99 1296.25 68.78 1304.03 69.61 1311.82 70.45 1319.61 71.32 1327.4 72.19" stroke="rgba(224, 198, 249, 1)" stroke-width="4"></path><path d="M1352.6 75.14Q1361.24 76.19 1369.89 77.24 1378.53 78.32 1387.17 79.39 1395.82 80.49 1404.46 81.58 1413.1 82.69 1421.74 83.8 1430.39 84.91 1439.03 86.03" stroke="rgba(190, 230, 230, 1)" stroke-width="4"></path><path d="M19.49 131.74Q26.19 132.6 32.89 133.46 39.59 134.32 46.29 135.17 52.99 136.01 59.69 136.85" stroke="rgba(193, 218, 242, 1)" stroke-width="4"></path><path d="M90.6 140.63Q92.37 140.84 94.15 141.05 95.92 141.26 97.69 141.47 99.47 141.68 101.24 141.89" stroke="rgba(193, 218, 242, 1)" stroke-width="4"></path><path d="M114.04 143.36Q117.82 143.78 121.61 144.21 125.39 144.63 129.17 145.04 132.96 145.45 136.74 145.86" stroke="rgba(237, 200, 237, 1)" stroke-width="4"></path><path d="M162.36 148.49Q170.51 149.26 178.65 150.04 186.8 150.76 194.94 151.48 203.09 152.15 211.23 152.81 219.38 153.42 227.52 154.02 235.67 154.56 243.81 155.11 251.96 155.59 260.11 156.06 268.25 156.47 276.4 156.88 284.54 157.22 292.69 157.56 300.83 157.83 308.98 158.1 317.12 158.3 325.27 158.49" stroke="rgba(193, 218, 242, 1)" stroke-width="4"></path><path d="M345.37 158.77Q352.63 158.8 359.88 158.83 367.13 158.8 374.39 158.77 381.64 158.68 388.9 158.6" stroke="rgba(193, 218, 242, 1)" stroke-width="4"></path><path d="M427.29 157.56Q435.47 157.22 443.66 156.88 451.84 156.47 460.03 156.06 468.21 155.58 476.4 155.09 484.58 154.55 492.77 154 500.95 153.39 509.14 152.78 517.33 152.11 525.51 151.44" stroke="rgba(190, 230, 230, 1)" stroke-width="4"></path><path d="M562.46 148.01Q571.26 147.11 580.07 146.2 588.87 145.25 597.68 144.29 606.48 143.29 615.28 142.29 624.09 141.25 632.89 140.21 641.7 139.14 650.5 138.07" stroke="rgba(195, 170, 183, 1)" stroke-width="4"></path><path d="M675.99 134.88Q683.88 133.87 691.77 132.87 699.66 131.85 707.55 130.84 715.44 129.82 723.33 128.8 731.22 127.78 739.11 126.76 747 125.75 754.9 124.74 762.79 123.74 770.68 122.74 778.57 121.75 786.46 120.77 794.35 119.8 802.24 118.84 810.13 117.89 818.02 116.95" stroke="rgba(224, 198, 249, 1)" stroke-width="4"></path><path d="M857.53 112.52Q865.07 111.73 872.61 110.95 880.15 110.2 887.69 109.45 895.23 108.75 902.77 108.05 910.31 107.39 917.85 106.74 925.39 106.13 932.93 105.52 940.46 104.96 948 104.41 955.54 103.9 963.08 103.4 970.62 102.95 978.16 102.51 985.7 102.12 993.24 101.73 1000.78 101.4 1008.32 101.07 1015.86 100.8 1023.4 100.53" stroke="rgba(190, 230, 230, 1)" stroke-width="4"></path><path d="M1050.56 99.87Q1058.56 99.78 1066.57 99.68 1074.57 99.66 1082.58 99.63 1090.58 99.68 1098.59 99.73 1106.59 99.85 1114.6 99.97 1122.6 100.16 1130.6 100.35 1138.61 100.61 1146.61 100.87 1154.62 101.2 1162.62 101.53 1170.63 101.93 1178.63 102.33 1186.64 102.79 1194.64 103.26" stroke="rgba(193, 218, 242, 1)" stroke-width="4"></path><path d="M1220.71 105.04Q1228.22 105.62 1235.73 106.21 1243.24 106.84 1250.75 107.47 1258.26 108.15 1265.77 108.83" stroke="rgba(195, 170, 183, 1)" stroke-width="4"></path><path d="M1289.03 111.11Q1296.89 111.94 1304.75 112.76 1312.62 113.62 1320.48 114.48 1328.34 115.38 1336.2 116.28 1344.06 117.21 1351.93 118.13 1359.79 119.09 1367.65 120.04" stroke="rgba(193, 218, 242, 1)" stroke-width="4"></path><path d="M1399.47 124.02Q1402.36 124.39 1405.26 124.76 1408.15 125.13 1411.05 125.5 1413.94 125.87 1416.84 126.24 1419.73 126.62 1422.63 126.99 1425.52 127.36 1428.42 127.74 1431.32 128.11 1434.21 128.48 1437.11 128.86 1440 129.23" stroke="rgba(237, 200, 237, 1)" stroke-width="4"></path><path d="M42.03 177.71Q49.97 178.71 57.92 179.71 65.86 180.69 73.8 181.68 81.74 182.64 89.69 183.6 97.63 184.53 105.57 185.47 113.52 186.37 121.46 187.27 129.4 188.14 137.34 189 145.29 189.83 153.23 190.66" stroke="rgba(193, 218, 242, 1)" stroke-width="4"></path><path d="M171.24 192.42Q178.94 193.13 186.64 193.84 194.33 194.49 202.03 195.15 209.73 195.76 217.43 196.36 225.12 196.91 232.82 197.47 240.52 197.96 248.22 198.46 255.92 198.89 263.61 199.33 271.31 199.7 279.01 200.08 286.71 200.39 294.4 200.7 302.1 200.95 309.8 201.2" stroke="rgba(224, 198, 249, 1)" stroke-width="4"></path><path d="M329.64 201.65Q337.29 201.75 344.93 201.84 352.58 201.88 360.22 201.91 367.87 201.87 375.51 201.84 383.16 201.74 390.8 201.64 398.45 201.48 406.1 201.31 413.74 201.08 421.39 200.85 429.03 200.56 436.68 200.27 444.32 199.91 451.97 199.56" stroke="rgba(190, 230, 230, 1)" stroke-width="4"></path><path d="M477.07 198.13Q485.32 197.57 493.58 197.02 501.83 196.4 510.09 195.78 518.34 195.1 526.6 194.43 534.85 193.69 543.11 192.95 551.36 192.16 559.61 191.37 567.87 190.53 576.12 189.69 584.38 188.81 592.63 187.92 600.89 187 609.14 186.07" stroke="rgba(224, 198, 249, 1)" stroke-width="4"></path><path d="M621.82 184.6Q629.86 183.65 637.9 182.69 645.93 181.7 653.97 180.72 662.01 179.71 670.05 178.71 678.09 177.69 686.13 176.67 694.16 175.64 702.2 174.6 710.24 173.57 718.28 172.53 726.32 171.49 734.35 170.46 742.39 169.42 750.43 168.39" stroke="rgba(204, 187, 255, 1)" stroke-width="4"></path><path d="M764.06 166.65Q770.24 165.87 776.42 165.09 782.6 164.33 788.77 163.56 794.95 162.8 801.13 162.05" stroke="rgba(224, 198, 249, 1)" stroke-width="4"></path><path d="M839.25 157.59Q846.94 156.75 854.63 155.9 862.32 155.09 870.01 154.29 877.7 153.52 885.39 152.75 893.09 152.03 900.78 151.31 908.47 150.63 916.16 149.95 923.85 149.33 931.54 148.7 939.23 148.13 946.92 147.56 954.61 147.04 962.3 146.53 969.99 146.07 977.69 145.61 985.38 145.21 993.07 144.81 1000.76 144.48 1008.45 144.14 1016.14 143.87 1023.83 143.59" stroke="rgba(195, 170, 183, 1)" stroke-width="4"></path><path d="M1062.91 142.79Q1071.29 142.75 1079.66 142.71 1088.04 142.75 1096.41 142.78 1104.79 142.9 1113.16 143.02 1121.54 143.21 1129.92 143.41 1138.29 143.68 1146.67 143.95 1155.04 144.3 1163.42 144.65" stroke="rgba(204, 187, 255, 1)" stroke-width="4"></path><path d="M1192.57 146.21Q1195.71 146.4 1198.84 146.6 1201.98 146.8 1205.12 147.01 1208.25 147.23 1211.39 147.44" stroke="rgba(224, 198, 249, 1)" stroke-width="4"></path><path d="M1241.49 149.76Q1249.72 150.47 1257.95 151.19 1266.19 151.96 1274.42 152.73 1282.65 153.56 1290.88 154.38 1299.12 155.25 1307.35 156.12 1315.58 157.03 1323.82 157.94 1332.05 158.88 1340.28 159.83 1348.51 160.81 1356.75 161.79 1364.98 162.8 1373.21 163.8 1381.44 164.83 1389.68 165.86 1397.91 166.91 1406.14 167.95" stroke="rgba(237, 200, 237, 1)" stroke-width="4"></path><path d="M7.99 216.42Q16.08 217.46 24.18 218.5 32.27 219.54 40.36 220.57 48.46 221.59 56.55 222.61 64.64 223.62 72.74 224.62 80.83 225.6 88.92 226.58 97.02 227.54 105.11 228.49" stroke="rgba(224, 198, 249, 1)" stroke-width="4"></path><path d="M127.38 231Q131.8 231.48 136.21 231.96 140.63 232.43 145.05 232.89 149.46 233.35 153.88 233.8" stroke="rgba(195, 170, 183, 1)" stroke-width="4"></path><path d="M178.31 236.16Q185.81 236.83 193.32 237.5 200.82 238.12 208.32 238.74 215.82 239.31 223.33 239.88 230.83 240.39 238.33 240.91 245.83 241.37 253.34 241.84 260.84 242.24 268.34 242.65 275.85 243 283.35 243.34 290.85 243.63 298.35 243.92 305.86 244.15 313.36 244.37 320.86 244.54 328.36 244.7 335.87 244.8 343.37 244.91" stroke="rgba(224, 198, 249, 1)" stroke-width="4"></path><path d="M360.09 244.98Q368.16 244.95 376.22 244.91 384.29 244.8 392.35 244.69 400.42 244.51 408.49 244.32 416.55 244.07 424.62 243.82 432.69 243.49 440.75 243.17 448.82 242.77 456.88 242.38 464.95 241.92 473.02 241.46 481.08 240.93 489.15 240.41 497.21 239.82 505.28 239.23" stroke="rgba(224, 198, 249, 1)" stroke-width="4"></path><path d="M516.16 238.38Q520.29 238.03 524.43 237.69 528.56 237.33 532.69 236.97 536.83 236.6 540.96 236.23" stroke="rgba(224, 198, 249, 1)" stroke-width="4"></path><path d="M554.12 234.99Q562.12 234.19 570.12 233.39 578.12 232.55 586.13 231.71 594.13 230.83 602.13 229.95 610.13 229.03 618.13 228.11 626.13 227.16 634.13 226.22 642.13 225.24 650.13 224.27 658.14 223.27 666.14 222.28 674.14 221.26 682.14 220.25 690.14 219.23 698.14 218.2 706.14 217.17 714.14 216.14 722.15 215.11 730.15 214.07 738.15 213.04 746.15 212.01" stroke="rgba(190, 230, 230, 1)" stroke-width="4"></path><path d="M784.93 207.11Q793.73 206.03 802.53 204.95 811.33 203.91 820.13 202.86 828.94 201.85 837.74 200.84 846.54 199.87 855.34 198.9" stroke="rgba(193, 218, 242, 1)" stroke-width="4"></path><path d="M869.83 197.38Q876.63 196.7 883.42 196.02 890.21 195.38 897.01 194.73 903.8 194.12 910.6 193.51" stroke="rgba(195, 170, 183, 1)" stroke-width="4"></path><path d="M939.42 191.18Q947.04 190.64 954.67 190.1 962.29 189.62 969.91 189.13 977.54 188.71 985.16 188.28 992.78 187.92 1000.41 187.55 1008.03 187.25 1015.65 186.94 1023.28 186.7 1030.9 186.46 1038.53 186.28 1046.15 186.11 1053.77 185.99 1061.4 185.88 1069.02 185.83 1076.64 185.79 1084.27 185.81 1091.89 185.82 1099.51 185.91 1107.14 185.99 1114.76 186.14 1122.38 186.29 1130.01 186.5 1137.63 186.72" stroke="rgba(190, 230, 230, 1)" stroke-width="4"></path><path d="M1153.14 187.28Q1155.33 187.37 1157.52 187.46 1159.7 187.56 1161.89 187.65 1164.08 187.76 1166.27 187.86" stroke="rgba(224, 198, 249, 1)" stroke-width="4"></path><path d="M1203.65 189.99Q1211.43 190.53 1219.21 191.08 1226.99 191.68 1234.77 192.28 1242.54 192.94 1250.32 193.59 1258.1 194.29 1265.88 195 1273.66 195.75 1281.44 196.5 1289.22 197.3 1297 198.09 1304.77 198.92 1312.55 199.76 1320.33 200.63 1328.11 201.5 1335.89 202.4 1343.67 203.31 1351.45 204.24 1359.23 205.17 1367 206.12 1374.78 207.07 1382.56 208.05 1390.34 209.02" stroke="rgba(195, 170, 183, 1)" stroke-width="4"></path><path d="M1409.23 211.42Q1414.36 212.08 1419.49 212.74 1424.62 213.4 1429.74 214.06 1434.87 214.72 1440 215.38" stroke="rgba(224, 198, 249, 1)" stroke-width="4"></path><path d="M31.41 262.51Q39.06 263.48 46.71 264.45 54.36 265.41 62 266.37 69.65 267.31 77.3 268.26 84.95 269.18 92.6 270.1 100.25 270.99 107.89 271.89 115.54 272.75 123.19 273.62 130.84 274.45 138.49 275.28 146.14 276.07 153.79 276.87 161.43 277.62 169.08 278.37 176.73 279.08 184.38 279.79" stroke="rgba(195, 170, 183, 1)" stroke-width="4"></path><path d="M206.89 281.7Q209.23 281.88 211.57 282.07 213.91 282.25 216.25 282.43 218.59 282.6 220.93 282.78" stroke="rgba(237, 200, 237, 1)" stroke-width="4"></path><path d="M248.62 284.63Q256.32 285.07 264.02 285.5 271.72 285.88 279.43 286.25 287.13 286.56 294.83 286.87 302.53 287.12 310.23 287.37 317.93 287.55 325.64 287.73 333.34 287.84 341.04 287.96 348.74 288.01 356.44 288.06 364.14 288.04 371.85 288.02 379.55 287.94 387.25 287.85 394.95 287.7 402.65 287.55 410.35 287.33 418.06 287.12 425.76 286.84 433.46 286.55" stroke="rgba(237, 200, 237, 1)" stroke-width="4"></path><path d="M461.87 285.19Q469.93 284.7 478 284.22 486.06 283.68 494.12 283.14 502.19 282.53 510.25 281.93 518.31 281.26 526.38 280.6 534.44 279.88 542.5 279.16 550.57 278.39 558.63 277.62 566.69 276.81 574.75 275.99 582.82 275.13 590.88 274.27 598.94 273.37 607.01 272.47 615.07 271.54 623.13 270.6 631.2 269.64 639.26 268.68" stroke="rgba(237, 200, 237, 1)" stroke-width="4"></path><path d="M664.18 265.6Q671.71 264.65 679.25 263.7 686.78 262.73 694.31 261.77 701.85 260.8 709.38 259.83 716.91 258.86 724.45 257.89 731.98 256.92 739.51 255.94 747.05 254.98 754.58 254.01" stroke="rgba(237, 200, 237, 1)" stroke-width="4"></path><path d="M770.35 252.01Q777.92 251.06 785.49 250.12 793.07 249.19 800.64 248.26 808.21 247.35 815.78 246.45 823.36 245.57 830.93 244.69 838.5 243.84 846.07 242.99 853.65 242.17 861.22 241.35 868.79 240.58 876.36 239.8 883.94 239.06 891.51 238.32" stroke="rgba(195, 170, 183, 1)" stroke-width="4"></path><path d="M908.98 236.73Q916.8 236.07 924.63 235.41 932.45 234.8 940.27 234.19 948.09 233.64 955.92 233.09 963.74 232.6 971.56 232.11 979.39 231.68 987.21 231.25 995.03 230.89 1002.86 230.52 1010.68 230.22 1018.5 229.92 1026.32 229.69 1034.15 229.45 1041.97 229.29 1049.79 229.12 1057.62 229.02 1065.44 228.92" stroke="rgba(193, 218, 242, 1)" stroke-width="4"></path><path d="M1099.12 228.96Q1101.84 229 1104.56 229.03 1107.27 229.07 1109.99 229.11 1112.71 229.16 1115.43 229.21" stroke="rgba(224, 198, 249, 1)" stroke-width="4"></path><path d="M1144.72 230.03Q1152.51 230.35 1160.29 230.66 1168.08 231.04 1175.86 231.41 1183.65 231.85 1191.44 232.29 1199.22 232.79 1207.01 233.29 1214.79 233.85 1222.58 234.41" stroke="rgba(193, 218, 242, 1)" stroke-width="4"></path><path d="M1243.62 236.09Q1251.2 236.76 1258.78 237.42 1266.36 238.13 1273.94 238.84 1281.52 239.6 1289.1 240.35 1296.68 241.14 1304.26 241.94 1311.84 242.77 1319.42 243.6 1327 244.46 1334.58 245.32" stroke="rgba(224, 198, 249, 1)" stroke-width="4"></path><path d="M1366.07 249.08Q1369.15 249.46 1372.23 249.84 1375.31 250.22 1378.39 250.6 1381.47 250.98 1384.55 251.37 1387.63 251.76 1390.71 252.14 1393.79 252.53 1396.87 252.92 1399.95 253.32 1403.03 253.71 1406.12 254.1 1409.2 254.5 1412.28 254.89 1415.36 255.28 1418.44 255.68 1421.52 256.08 1424.6 256.47 1427.68 256.87 1430.76 257.27 1433.84 257.67 1436.92 258.06 1440 258.46" stroke="rgba(195, 170, 183, 1)" stroke-width="4"></path><path d="M9.78 302.8Q17.33 303.77 24.87 304.74 32.42 305.71 39.96 306.67 47.51 307.63 55.05 308.58 62.6 309.52 70.14 310.46 77.69 311.38 85.23 312.29 92.78 313.19 100.33 314.09 107.87 314.95 115.42 315.82 122.96 316.66 130.51 317.5 138.05 318.3 145.6 319.1 153.14 319.87 160.69 320.63 168.23 321.36 175.78 322.08" stroke="rgba(204, 187, 255, 1)" stroke-width="4"></path><path d="M206.29 324.73Q209.58 324.99 212.87 325.25 216.16 325.5 219.46 325.75 222.75 325.98 226.04 326.22" stroke="rgba(193, 218, 242, 1)" stroke-width="4"></path><path d="M261.6 328.45Q269.25 328.83 276.89 329.21 284.54 329.53 292.18 329.85 299.83 330.11 307.48 330.36 315.12 330.56 322.77 330.75 330.41 330.88 338.06 331 345.71 331.06 353.35 331.13 361 331.12 368.64 331.12 376.29 331.05 383.93 330.98 391.58 330.84 399.23 330.71 406.87 330.51 414.52 330.3 422.16 330.04 429.81 329.78" stroke="rgba(224, 198, 249, 1)" stroke-width="4"></path><path d="M441.78 329.27Q444.14 329.16 446.5 329.05 448.87 328.94 451.23 328.82 453.59 328.7 455.95 328.58" stroke="rgba(237, 200, 237, 1)" stroke-width="4"></path><path d="M481.99 327.04Q489.94 326.49 497.89 325.94 505.83 325.33 513.78 324.72 521.73 324.06 529.68 323.39 537.63 322.67 545.58 321.95 553.52 321.19 561.47 320.42 569.42 319.61 577.37 318.79 585.32 317.94 593.26 317.09 601.21 316.19 609.16 315.3 617.11 314.38 625.06 313.45 633.01 312.5 640.95 311.55 648.9 310.57 656.85 309.59" stroke="rgba(224, 198, 249, 1)" stroke-width="4"></path><path d="M684.12 306.15Q687.81 305.68 691.49 305.21 695.18 304.74 698.86 304.26 702.55 303.79 706.23 303.32" stroke="rgba(204, 187, 255, 1)" stroke-width="4"></path><path d="M744.37 298.4Q752.04 297.42 759.71 296.44 767.38 295.47 775.05 294.5 782.72 293.54 790.39 292.59 798.06 291.66 805.72 290.72 813.39 289.81 821.06 288.9 828.73 288.02 836.4 287.14 844.07 286.29 851.74 285.45" stroke="rgba(224, 198, 249, 1)" stroke-width="4"></path><path d="M880.09 282.5Q888.07 281.74 896.04 280.97 904.02 280.26 912 279.54 919.98 278.88 927.95 278.22 935.93 277.61 943.91 277.01 951.88 276.46 959.86 275.91 967.84 275.43 975.82 274.94 983.79 274.52 991.77 274.1" stroke="rgba(204, 187, 255, 1)" stroke-width="4"></path><path d="M1017.31 273.04Q1025.85 272.78 1034.38 272.52 1042.92 272.35 1051.46 272.17 1059.99 272.07 1068.53 271.98 1077.07 271.96 1085.6 271.95 1094.14 272.02 1102.67 272.08 1111.21 272.23 1119.75 272.38 1128.28 272.61 1136.82 272.84" stroke="rgba(224, 198, 249, 1)" stroke-width="4"></path><path d="M1174.18 274.4Q1182.38 274.86 1190.59 275.32 1198.79 275.84 1206.99 276.37 1215.2 276.96 1223.4 277.55 1231.61 278.2 1239.81 278.85 1248.01 279.56 1256.22 280.27 1264.42 281.03 1272.62 281.79 1280.83 282.61 1289.03 283.42" stroke="rgba(237, 200, 237, 1)" stroke-width="4"></path><path d="M1304.26 285.01Q1310.43 285.69 1316.6 286.36 1322.77 287.05 1328.94 287.75 1335.11 288.46 1341.28 289.18 1347.45 289.91 1353.62 290.64 1359.79 291.39 1365.96 292.14 1372.13 292.9 1378.3 293.67 1384.47 294.44 1390.64 295.21 1396.81 296 1402.98 296.78 1409.15 297.57 1415.32 298.36 1421.49 299.15 1427.66 299.95 1433.83 300.74 1440 301.54" stroke="rgba(204, 187, 255, 1)" stroke-width="4"></path><path d="M1.34 344.79Q9.62 345.86 17.9 346.92 26.18 347.99 34.46 349.05 42.73 350.1 51.01 351.15 59.29 352.18 67.57 353.22 75.85 354.23 84.13 355.24 92.41 356.22 100.69 357.21 108.96 358.16 117.24 359.11 125.52 360.02 133.8 360.93" stroke="rgba(204, 187, 255, 1)" stroke-width="4"></path><path d="M170.78 364.69Q178.87 365.43 186.96 366.17 195.05 366.86 203.14 367.55 211.23 368.18 219.32 368.81 227.41 369.38 235.5 369.95 243.59 370.46 251.68 370.97 259.77 371.41 267.86 371.86 275.94 372.23 284.03 372.6 292.12 372.91 300.21 373.21 308.3 373.45 316.39 373.68 324.48 373.84 332.57 374 340.66 374.09 348.75 374.18 356.84 374.19 364.93 374.21" stroke="rgba(237, 200, 237, 1)" stroke-width="4"></path><path d="M397.32 373.82Q405.32 373.62 413.31 373.42 421.31 373.15 429.3 372.87 437.3 372.53 445.3 372.19 453.29 371.78 461.29 371.37 469.28 370.9 477.28 370.42 485.27 369.89 493.27 369.35 501.27 368.75 509.26 368.16 517.26 367.5 525.25 366.85 533.25 366.14 541.25 365.43 549.24 364.67 557.24 363.91 565.23 363.11 573.23 362.3" stroke="rgba(195, 170, 183, 1)" stroke-width="4"></path><path d="M594.75 360Q602.72 359.1 610.69 358.2 618.65 357.27 626.62 356.34 634.59 355.39 642.56 354.43 650.53 353.45 658.5 352.46 666.47 351.46 674.43 350.46 682.4 349.45 690.37 348.43" stroke="rgba(204, 187, 255, 1)" stroke-width="4"></path><path d="M712.45 345.59Q721.85 344.38 731.25 343.16 740.65 341.95 750.06 340.74 759.46 339.55 768.86 338.35" stroke="rgba(204, 187, 255, 1)" stroke-width="4"></path><path d="M803.35 334.09Q811.25 333.15 819.14 332.21 827.04 331.3 834.94 330.39 842.83 329.51 850.73 328.63 858.62 327.79 866.52 326.95 874.42 326.16 882.31 325.36 890.21 324.61 898.11 323.86 906 323.16 913.9 322.45 921.8 321.81 929.69 321.16 937.59 320.56 945.48 319.97 953.38 319.43 961.28 318.9 969.17 318.42 977.07 317.95" stroke="rgba(237, 200, 237, 1)" stroke-width="4"></path><path d="M998.45 316.87Q1006.04 316.56 1013.63 316.25 1021.21 316 1028.8 315.75 1036.39 315.57 1043.98 315.38" stroke="rgba(190, 230, 230, 1)" stroke-width="4"></path><path d="M1076.19 315.02Q1084.31 315.04 1092.44 315.06 1100.56 315.15 1108.68 315.25 1116.81 315.41 1124.93 315.58 1133.06 315.82 1141.18 316.06 1149.3 316.38 1157.43 316.69 1165.55 317.07 1173.67 317.45 1181.8 317.9 1189.92 318.36 1198.04 318.87 1206.17 319.39 1214.29 319.97 1222.42 320.55 1230.54 321.19 1238.66 321.83 1246.79 322.53 1254.91 323.23" stroke="rgba(237, 200, 237, 1)" stroke-width="4"></path><path d="M1277.17 325.31Q1285.36 326.14 1293.54 326.96 1301.72 327.83 1309.91 328.7 1318.1 329.61 1326.28 330.52 1334.47 331.47 1342.65 332.42 1350.84 333.39 1359.02 334.37 1367.2 335.38 1375.39 336.38 1383.58 337.41 1391.76 338.43" stroke="rgba(237, 200, 237, 1)" stroke-width="4"></path><path d="M46.82 393.7Q54.13 394.62 61.44 395.53 68.75 396.44 76.07 397.34 83.38 398.22 90.69 399.1" stroke="rgba(204, 187, 255, 1)" stroke-width="4"></path><path d="M105.25 400.81Q113.34 401.73 121.43 402.65 129.52 403.53 137.6 404.42 145.69 405.26 153.78 406.1 161.87 406.89 169.96 407.69" stroke="rgba(190, 230, 230, 1)" stroke-width="4"></path><path d="M199.11 410.29Q206.61 410.89 214.11 411.5 221.62 412.05 229.12 412.6 236.62 413.09 244.12 413.59 251.62 414.03 259.13 414.47 266.63 414.85 274.13 415.24 281.63 415.56 289.13 415.89 296.64 416.15 304.14 416.42 311.64 416.62 319.14 416.82 326.64 416.96 334.15 417.1 341.65 417.18 349.15 417.26" stroke="rgba(224, 198, 249, 1)" stroke-width="4"></path><path d="M387.35 417.08Q395.05 416.93 402.74 416.78 410.44 416.56 418.13 416.35 425.83 416.06 433.52 415.78 441.22 415.44 448.91 415.09 456.61 414.69 464.3 414.28 472 413.81 479.7 413.35 487.39 412.82 495.09 412.3 502.78 411.72 510.48 411.14 518.17 410.51 525.87 409.87 533.56 409.19 541.26 408.51 548.95 407.78 556.65 407.05" stroke="rgba(190, 230, 230, 1)" stroke-width="4"></path><path d="M568.87 405.83Q577.34 404.94 585.8 404.05 594.27 403.12 602.74 402.19 611.2 401.21 619.67 400.24 628.14 399.23 636.6 398.23 645.07 397.19 653.54 396.16 662 395.1 670.47 394.04" stroke="rgba(237, 200, 237, 1)" stroke-width="4"></path><path d="M697.54 390.59Q705.05 389.62 712.56 388.65 720.06 387.68 727.57 386.71 735.08 385.75 742.59 384.78 750.1 383.82 757.6 382.86 765.11 381.91 772.62 380.96 780.13 380.02 787.64 379.08 795.15 378.17 802.65 377.25 810.16 376.35 817.67 375.46 825.18 374.59 832.69 373.72 840.19 372.88 847.7 372.04 855.21 371.23 862.72 370.43 870.23 369.66 877.73 368.89 885.24 368.16 892.75 367.43" stroke="rgba(193, 218, 242, 1)" stroke-width="4"></path><path d="M907.83 366.06Q915.47 365.41 923.12 364.76 930.76 364.16 938.41 363.56 946.05 363.02 953.7 362.47 961.34 361.99 968.99 361.5 976.63 361.07 984.28 360.64 991.92 360.27 999.57 359.9 1007.21 359.59 1014.85 359.28 1022.5 359.04 1030.14 358.79 1037.79 358.61 1045.43 358.43 1053.08 358.31 1060.72 358.2 1068.37 358.15 1076.01 358.1 1083.66 358.11 1091.3 358.13 1098.95 358.21 1106.59 358.29" stroke="rgba(224, 198, 249, 1)" stroke-width="4"></path><path d="M1131.08 358.82Q1139.11 359.09 1147.14 359.35 1155.17 359.69 1163.2 360.02 1171.22 360.42 1179.25 360.82 1187.28 361.29 1195.31 361.76 1203.34 362.29 1211.37 362.82 1219.4 363.42 1227.43 364.01 1235.45 364.66 1243.48 365.31 1251.51 366.01 1259.54 366.72 1267.57 367.48 1275.6 368.23 1283.63 369.04 1291.66 369.84 1299.68 370.69 1307.71 371.54 1315.74 372.43 1323.77 373.32" stroke="rgba(237, 200, 237, 1)" stroke-width="4"></path><path d="M1359.35 377.49Q1362.71 377.9 1366.07 378.31 1369.43 378.72 1372.79 379.14 1376.15 379.55 1379.51 379.97 1382.87 380.39 1386.23 380.81 1389.59 381.24 1392.95 381.66 1396.31 382.08 1399.68 382.51 1403.04 382.94 1406.4 383.37 1409.76 383.8 1413.12 384.23 1416.48 384.66 1419.84 385.09 1423.2 385.52 1426.56 385.96 1429.92 386.39 1433.28 386.82 1436.64 387.26 1440 387.69" stroke="rgba(193, 218, 242, 1)" stroke-width="4"></path><path d="M28.86 434.49Q36.77 435.49 44.68 436.5 52.58 437.5 60.49 438.49 68.4 439.47 76.31 440.44 84.22 441.4 92.13 442.35 100.03 443.28 107.94 444.2 115.85 445.09 123.76 445.99 131.67 446.84 139.57 447.7 147.48 448.52 155.39 449.34" stroke="rgba(237, 200, 237, 1)" stroke-width="4"></path><path d="M180.87 451.78Q188.69 452.47 196.52 453.15 204.34 453.79 212.17 454.42 220 455 227.82 455.58 235.64 456.1 243.47 456.62 251.3 457.09 259.12 457.55 266.94 457.95 274.77 458.35 282.59 458.68 290.42 459.02 298.25 459.28 306.07 459.55 313.89 459.76 321.72 459.96 329.55 460.09 337.37 460.23" stroke="rgba(193, 218, 242, 1)" stroke-width="4"></path><path d="M360.84 460.37Q368.4 460.33 375.95 460.3 383.51 460.2 391.06 460.1 398.62 459.93 406.17 459.77 413.73 459.54 421.28 459.32 428.84 459.03 436.39 458.74" stroke="rgba(193, 218, 242, 1)" stroke-width="4"></path><path d="M462.55 457.46Q470.69 456.97 478.83 456.48 486.97 455.93 495.1 455.37 503.24 454.76 511.38 454.14 519.52 453.47 527.66 452.8 535.8 452.07 543.94 451.34 552.07 450.56 560.21 449.77 568.35 448.95 576.49 448.12 584.63 447.24 592.77 446.37 600.9 445.46 609.04 444.55 617.18 443.6 625.32 442.65" stroke="rgba(204, 187, 255, 1)" stroke-width="4"></path><path d="M653.68 439.22Q662.07 438.17 670.45 437.12 678.84 436.05 687.22 434.99 695.61 433.91 703.99 432.84 712.38 431.75 720.76 430.67 729.15 429.59 737.53 428.51 745.92 427.43 754.3 426.36" stroke="rgba(204, 187, 255, 1)" stroke-width="4"></path><path d="M773.35 423.94Q781.46 422.93 789.58 421.92 797.69 420.93 805.8 419.94 813.91 418.98 822.03 418.02 830.14 417.09 838.25 416.17 846.36 415.27 854.48 414.38 862.59 413.53 870.7 412.68" stroke="rgba(190, 230, 230, 1)" stroke-width="4"></path><path d="M904.07 409.47Q912.76 408.72 921.45 407.97 930.13 407.29 938.82 406.61 947.51 406 956.2 405.38" stroke="rgba(190, 230, 230, 1)" stroke-width="4"></path><path d="M973.79 404.29Q981.29 403.89 988.79 403.48 996.29 403.14 1003.8 402.79 1011.3 402.5 1018.8 402.22 1026.3 401.99 1033.8 401.77 1041.3 401.61 1048.81 401.44 1056.31 401.34 1063.81 401.24 1071.31 401.21 1078.81 401.17 1086.31 401.2 1093.81 401.22 1101.32 401.31 1108.82 401.4 1116.32 401.56 1123.82 401.71" stroke="rgba(237, 200, 237, 1)" stroke-width="4"></path><path d="M1156.42 402.8Q1164.68 403.18 1172.95 403.57 1181.21 404.03 1189.48 404.48 1197.74 405.01 1206 405.53 1214.27 406.12 1222.53 406.71 1230.8 407.36 1239.06 408.02" stroke="rgba(237, 200, 237, 1)" stroke-width="4"></path><path d="M1262.93 410.11Q1270.82 410.86 1278.7 411.61 1286.59 412.41 1294.47 413.21 1302.36 414.05 1310.24 414.89" stroke="rgba(224, 198, 249, 1)" stroke-width="4"></path><path d="M1348.72 419.29Q1355.89 420.15 1363.07 421.02 1370.24 421.9 1377.41 422.79 1384.59 423.69 1391.76 424.58" stroke="rgba(190, 230, 230, 1)" stroke-width="4"></path><path d="M1418.19 427.96Q1419.75 428.16 1421.31 428.36 1422.86 428.56 1424.42 428.76 1425.98 428.96 1427.54 429.16 1429.1 429.36 1430.65 429.56 1432.21 429.76 1433.77 429.96 1435.33 430.17 1436.88 430.37 1438.44 430.57 1440 430.77" stroke="rgba(190, 230, 230, 1)" stroke-width="4"></path><path d="M1.43 474.03Q9.64 475.09 17.84 476.15 26.05 477.2 34.26 478.25 42.46 479.3 50.67 480.34 58.88 481.36 67.08 482.39 75.29 483.39 83.5 484.39 91.7 485.37 99.91 486.35" stroke="rgba(193, 218, 242, 1)" stroke-width="4"></path><path d="M123.97 489.09Q127 489.42 130.03 489.75 133.07 490.08 136.1 490.41 139.13 490.73 142.16 491.05" stroke="rgba(190, 230, 230, 1)" stroke-width="4"></path><path d="M179.06 494.69Q186.63 495.36 194.19 496.03 201.76 496.65 209.32 497.28 216.89 497.85 224.46 498.42 232.02 498.94 239.59 499.45 247.15 499.92 254.72 500.38 262.28 500.78 269.85 501.19" stroke="rgba(237, 200, 237, 1)" stroke-width="4"></path><path d="M309.24 502.72Q317.02 502.91 324.79 503.1 332.57 503.22 340.35 503.34 348.13 503.39 355.9 503.44 363.68 503.43 371.46 503.41 379.23 503.33 387.01 503.24 394.79 503.09 402.56 502.94 410.34 502.72 418.12 502.5 425.89 502.21 433.67 501.93 441.45 501.58 449.23 501.23 457 500.82 464.78 500.41" stroke="rgba(190, 230, 230, 1)" stroke-width="4"></path><path d="M485.07 499.15Q491.35 498.71 497.63 498.27 503.91 497.79 510.2 497.31 516.48 496.8 522.76 496.29" stroke="rgba(195, 170, 183, 1)" stroke-width="4"></path><path d="M553.75 493.48Q561.45 492.72 569.15 491.95 576.85 491.15 584.55 490.34 592.25 489.5 599.96 488.65 607.66 487.77 615.36 486.9 623.06 485.99 630.76 485.08 638.46 484.15 646.16 483.22 653.86 482.27 661.56 481.31 669.26 480.34 676.96 479.37 684.67 478.39 692.37 477.41 700.07 476.42 707.77 475.43 715.47 474.43 723.17 473.44" stroke="rgba(195, 170, 183, 1)" stroke-width="4"></path><path d="M737.87 471.54Q746.27 470.46 754.68 469.38 763.08 468.32 771.49 467.25 779.89 466.2 788.3 465.16 796.7 464.13 805.1 463.11 813.51 462.11 821.91 461.11 830.32 460.15 838.72 459.19 847.13 458.27 855.53 457.34" stroke="rgba(224, 198, 249, 1)" stroke-width="4"></path><path d="M895.25 453.35Q898.97 453.01 902.69 452.67 906.41 452.34 910.14 452.01 913.86 451.69 917.58 451.37" stroke="rgba(195, 170, 183, 1)" stroke-width="4"></path><path d="M953.17 448.66Q961.41 448.14 969.64 447.61 977.88 447.15 986.12 446.7 994.35 446.31 1002.59 445.92 1010.83 445.6 1019.06 445.29 1027.3 445.04 1035.54 444.8 1043.77 444.63 1052.01 444.47 1060.24 444.38 1068.48 444.28 1076.72 444.27 1084.95 444.25 1093.19 444.31 1101.43 444.38 1109.66 444.51 1117.9 444.65" stroke="rgba(190, 230, 230, 1)" stroke-width="4"></path><path d="M1148.18 445.55Q1156.09 445.88 1164.01 446.21 1171.92 446.61 1179.84 447.01 1187.75 447.47 1195.66 447.94 1203.58 448.46 1211.49 448.99 1219.4 449.57 1227.32 450.15 1235.23 450.79 1243.14 451.43 1251.06 452.13 1258.97 452.82 1266.89 453.57 1274.8 454.31 1282.71 455.1 1290.63 455.89 1298.54 456.72 1306.46 457.56 1314.37 458.43 1322.28 459.3 1330.2 460.21 1338.11 461.12" stroke="rgba(224, 198, 249, 1)" stroke-width="4"></path><path d="M1372.87 465.3Q1379.58 466.14 1386.3 466.97 1393.01 467.82 1399.72 468.67 1406.43 469.53 1413.15 470.39 1419.86 471.25 1426.57 472.11 1433.29 472.98 1440 473.85" stroke="rgba(237, 200, 237, 1)" stroke-width="4"></path><path d="M6.89 517.81Q15.29 518.89 23.68 519.98 32.08 521.05 40.47 522.12 48.87 523.18 57.27 524.24 65.66 525.28 74.06 526.32 82.45 527.34 90.85 528.35" stroke="rgba(195, 170, 183, 1)" stroke-width="4"></path><path d="M118.85 531.59Q126.36 532.42 133.87 533.25 141.38 534.04 148.89 534.83 156.4 535.58 163.92 536.33 171.43 537.05 178.94 537.76 186.45 538.42 193.96 539.09 201.47 539.71 208.98 540.33 216.49 540.89 224 541.46 231.51 541.98 239.02 542.49 246.54 542.96 254.05 543.42 261.56 543.82 269.07 544.22 276.58 544.57 284.09 544.91" stroke="rgba(204, 187, 255, 1)" stroke-width="4"></path><path d="M320.34 546.08Q329.28 546.24 338.22 546.39 347.15 546.45 356.09 546.52 365.03 546.49 373.97 546.47 382.91 546.35 391.84 546.24 400.78 546.03 409.72 545.83" stroke="rgba(193, 218, 242, 1)" stroke-width="4"></path><path d="M446.26 544.45Q454.43 544.03 462.6 543.61 470.77 543.12 478.94 542.63 487.11 542.07 495.28 541.51 503.45 540.9 511.61 540.28 519.78 539.6 527.95 538.92 536.12 538.19 544.29 537.46 552.46 536.67 560.63 535.89" stroke="rgba(195, 170, 183, 1)" stroke-width="4"></path><path d="M580.32 533.87Q588 533.04 595.68 532.2 603.36 531.34 611.05 530.47 618.73 529.57 626.41 528.68 634.09 527.75 641.77 526.83 649.45 525.89 657.14 524.94 664.82 523.98 672.5 523.01 680.18 522.04 687.86 521.06 695.54 520.07 703.22 519.09 710.91 518.1 718.59 517.11 726.27 516.11 733.95 515.12" stroke="rgba(204, 187, 255, 1)" stroke-width="4"></path><path d="M757.69 512.08Q765.7 511.06 773.72 510.05 781.73 509.05 789.74 508.05 797.76 507.08 805.77 506.1" stroke="rgba(193, 218, 242, 1)" stroke-width="4"></path><path d="M842.85 501.81Q847.74 501.27 852.63 500.73 857.52 500.21 862.41 499.69 867.3 499.19 872.19 498.68" stroke="rgba(237, 200, 237, 1)" stroke-width="4"></path><path d="M906.04 495.45Q913.68 494.79 921.31 494.14 928.95 493.54 936.58 492.93 944.22 492.38 951.85 491.83 959.49 491.34 967.12 490.84 974.76 490.4 982.4 489.97 990.03 489.59 997.67 489.21 1005.3 488.9 1012.94 488.58 1020.57 488.33 1028.21 488.08 1035.84 487.89 1043.48 487.7 1051.11 487.57 1058.75 487.45" stroke="rgba(224, 198, 249, 1)" stroke-width="4"></path><path d="M1093.83 487.38Q1101.51 487.47 1109.19 487.56 1116.87 487.72 1124.55 487.88 1132.23 488.1 1139.9 488.33 1147.58 488.62 1155.26 488.9 1162.94 489.26 1170.62 489.61 1178.3 490.02 1185.98 490.43 1193.66 490.9 1201.34 491.38 1209.02 491.9 1216.69 492.43 1224.37 493.02 1232.05 493.6 1239.73 494.24 1247.41 494.88" stroke="rgba(204, 187, 255, 1)" stroke-width="4"></path><path d="M1271.55 497.07Q1279.39 497.85 1287.22 498.62 1295.06 499.44 1302.89 500.25 1310.73 501.11 1318.56 501.96" stroke="rgba(237, 200, 237, 1)" stroke-width="4"></path><path d="M1347.13 505.25Q1350.07 505.6 1353 505.95 1355.94 506.31 1358.88 506.66 1361.81 507.02 1364.75 507.38" stroke="rgba(193, 218, 242, 1)" stroke-width="4"></path><path d="M1386.99 510.14Q1393.62 510.98 1400.24 511.81 1406.87 512.66 1413.49 513.51 1420.12 514.36 1426.75 515.21 1433.37 516.07 1440 516.92" stroke="rgba(193, 218, 242, 1)" stroke-width="4"></path></g><defs><clipPath id="SvgjsClipPath1088"><rect width="1440" height="560" x="0" y="0"></rect></clipPath></defs></svg>